<?xml version="1.0" standalone="no"?>
<!DOCTYPE svg PUBLIC "-//W3C//DTD SVG 20010904//EN"
 "http://www.w3.org/TR/2001/REC-SVG-20010904/DTD/svg10.dtd">
<svg version="1.0" xmlns="http://www.w3.org/2000/svg"
 width="500.000000pt" height="500.000000pt" viewBox="0 0 500.000000 500.000000"
 preserveAspectRatio="xMidYMid meet">

<g transform="translate(0.000000,500.000000) scale(0.100000,-0.100000)"
fill="#000000" stroke="none">
<path d="M2224 3798 c-25 -33 -126 -345 -136 -418 -3 -20 -8 -13 -26 35 -70
182 -197 276 -265 195 -14 -16 -28 -46 -32 -67 l-6 -38 -48 3 c-31 3 -60 -2
-80 -12 l-31 -17 0 40 c0 22 10 64 21 95 25 63 20 86 -16 86 -57 0 -106 -170
-71 -250 11 -27 -15 -49 -51 -43 -18 3 -33 11 -33 18 0 25 -61 95 -102 116
-53 27 -130 23 -176 -9 -43 -31 -68 -99 -53 -145 24 -73 93 -101 187 -78 54
14 59 11 67 -53 7 -49 58 -175 88 -218 19 -27 21 -35 11 -62 -7 -18 -12 -43
-12 -57 0 -49 213 -658 263 -752 34 -65 87 -115 156 -149 45 -23 55 -23 436
-26 259 -2 412 1 457 8 80 14 127 43 191 118 52 61 69 109 167 472 34 124 68
244 76 268 8 24 14 67 13 95 -1 29 2 73 6 99 12 78 0 115 -61 178 l-55 58 21
35 21 35 -23 16 c-34 24 -59 19 -88 -16 l-27 -32 -35 17 c-101 48 -209 43
-287 -14 l-41 -29 0 28 c0 31 -26 62 -52 62 -29 0 -40 -27 -33 -80 6 -46 5
-50 -14 -51 -12 -1 -26 -2 -32 -3 -6 -1 -22 41 -34 91 -26 100 -80 231 -153
370 -39 72 -52 89 -73 91 -14 2 -30 -3 -35 -10z m50 -150 c-3 -4 -1 -8 5 -8
12 0 81 -136 81 -159 -1 -9 -32 -49 -70 -90 l-69 -74 -20 24 c-29 34 -26 92 8
196 45 136 51 150 61 133 5 -8 6 -18 4 -22z m-371 -107 c25 -21 84 -122 108
-185 23 -60 48 -159 58 -233 l8 -53 -57 0 -57 0 -7 75 c-4 42 -16 104 -26 138
-11 34 -22 81 -26 103 -5 36 -9 42 -29 39 -16 -1 -22 2 -18 11 3 8 1 14 -4 14
-10 0 -17 95 -8 110 7 11 33 3 58 -19z m-584 -61 c16 0 61 -53 61 -71 0 -29
-46 -36 -88 -13 -28 15 -52 47 -52 70 0 9 45 23 58 18 8 -2 17 -4 21 -4z m439
-60 c32 -20 76 -95 66 -112 -3 -4 -1 -8 5 -8 17 0 52 -133 49 -186 l-3 -49
-78 -3 c-72 -3 -78 -1 -86 20 -40 103 -101 281 -101 297 0 27 47 61 84 61 17
0 46 -9 64 -20z m645 -67 c32 -120 32 -129 -7 -152 -19 -12 -51 -40 -72 -63
l-37 -41 -24 29 c-51 61 -56 73 -42 90 8 10 21 13 37 9 18 -4 23 -2 20 7 -19
49 -17 53 38 116 31 34 59 62 63 62 5 0 15 -26 24 -57z m-895 -45 c7 -7 12
-21 12 -33 0 -12 16 -61 36 -109 36 -90 35 -112 -2 -104 -13 2 -26 28 -46 93
-30 98 -35 145 -15 145 8 0 7 4 -3 10 -8 5 -10 10 -4 10 5 0 15 -5 22 -12z
m1409 -19 c46 -22 50 -33 31 -74 -15 -34 -27 -32 -72 14 -22 22 -52 45 -68 52
-21 9 -26 14 -16 20 23 15 81 10 125 -12z m-727 -25 c0 -27 -18 -23 -22 6 -4
24 -2 27 9 19 7 -7 13 -17 13 -25z m584 -65 c55 -43 75 -122 34 -133 -13 -3
-85 -6 -160 -6 l-138 0 0 30 c0 20 6 32 18 36 9 3 29 12 44 20 14 8 37 14 51
14 19 0 26 6 29 22 5 39 81 49 122 17z m342 -7 c24 -17 44 -59 43 -92 0 -32
-1 -33 -12 -15 -7 11 -27 35 -45 53 -20 19 -32 38 -28 47 6 16 24 19 42 7z
m-703 -89 c-7 -48 -6 -46 -43 -38 l-32 7 33 34 c18 19 36 34 40 34 4 0 5 -17
2 -37z m-188 -3 l29 -30 -32 0 c-29 0 -32 3 -32 30 0 17 1 30 3 30 2 0 16 -13
32 -30z m694 -108 l174 -7 20 -27 c19 -26 20 -28 3 -72 -9 -24 -37 -123 -61
-218 -111 -440 -117 -457 -178 -516 l-34 -33 -456 3 -455 3 -43 30 c-79 56
-101 97 -174 322 -36 114 -78 242 -91 283 -13 41 -24 84 -25 95 0 18 -1 18
-10 -3 -7 -20 -11 -21 -22 -10 -54 54 -39 136 28 150 33 7 1135 7 1324 0z
m-597 -909 c-51 -2 -132 -2 -180 0 -48 1 -6 3 93 3 99 0 138 -2 87 -3z"/>
<path d="M1754 2928 c-30 -10 -32 -13 -38 -78 -6 -58 -3 -82 20 -157 68 -227
126 -391 148 -424 48 -70 42 -70 542 -67 l448 3 18 60 c29 95 104 399 129 523
21 104 22 113 7 129 -15 15 -76 16 -630 19 -391 1 -624 -2 -644 -8z m404 -366
c2 -255 0 -293 -13 -298 -8 -4 -22 -1 -30 6 -13 11 -15 58 -15 302 l0 289 28
-3 27 -3 3 -293z m176 292 c14 -5 16 -41 16 -295 0 -159 -4 -289 -9 -289 -26
0 -29 38 -31 300 -1 151 -1 278 -1 283 1 9 5 9 25 1z m150 -2 c3 -5 6 -136 6
-292 2 -265 1 -285 -17 -297 -16 -12 -20 -11 -35 8 -16 19 -18 49 -18 289 0
148 3 275 6 284 6 17 49 22 58 8z m274 -286 c2 -309 -2 -343 -40 -296 -16 20
-18 48 -18 299 0 153 3 281 7 285 4 4 16 6 28 4 20 -3 20 -10 23 -292z m-854
231 c14 -11 18 -36 23 -160 4 -106 3 -147 -5 -147 -23 0 -44 51 -48 118 -3 37
-10 90 -16 119 -9 41 -8 56 2 68 15 18 21 19 44 2z m363 -247 c2 -219 0 -251
-11 -230 -10 18 -15 89 -18 258 -5 210 -4 233 11 230 14 -3 16 -33 18 -258z
m643 118 c-20 -79 -41 -159 -47 -178 -6 -19 -11 -51 -12 -69 -1 -19 -4 -37 -6
-40 -3 -2 -5 93 -5 212 l0 217 53 0 54 0 -37 -142z m-315 122 c3 -5 -1 -10
-10 -10 -9 0 -13 5 -10 10 3 6 8 10 10 10 2 0 7 -4 10 -10z m-558 -22 c4 -7 9
-70 11 -139 2 -105 0 -129 -13 -142 -17 -18 -43 -13 -62 11 -14 17 -19 263 -6
275 11 12 61 8 70 -5z m559 -262 c3 -14 3 -29 0 -35 -4 -6 0 -25 8 -44 7 -19
17 -53 21 -76 l7 -43 -31 16 -31 17 0 94 c0 91 12 125 26 71z"/>
<path d="M1845 1920 c-112 -55 -128 -211 -30 -285 76 -58 212 -41 260 34 47
73 37 171 -23 224 -52 47 -144 58 -207 27z m146 -83 c36 -24 46 -47 33 -75 -7
-18 -10 -28 -12 -50 -1 -8 -11 -12 -24 -10 -19 2 -22 8 -20 34 4 38 -18 59
-53 50 -24 -6 -27 -13 -28 -63 0 -33 -25 -16 -33 22 -4 21 0 43 10 63 29 56
72 66 127 29z"/>
<path d="M2011 1784 c0 -11 3 -14 6 -6 3 7 2 16 -1 19 -3 4 -6 -2 -5 -13z"/>
<path d="M2634 1921 c-112 -51 -124 -218 -21 -292 33 -24 50 -29 99 -29 64 0
100 14 137 54 32 34 52 115 40 159 -28 104 -150 155 -255 108z m139 -73 c54
-28 63 -88 21 -137 -35 -42 -48 -40 -41 9 4 29 1 45 -10 56 -21 21 -55 14 -69
-14 -19 -37 -24 -37 -24 2 0 28 7 45 29 67 31 31 59 36 94 17z"/>
<path d="M1374 1336 c-3 -8 -4 -23 -2 -33 3 -16 17 -18 133 -21 189 -5 991 11
920 19 -33 3 -54 6 -47 7 6 1 12 8 12 16 0 8 10 17 23 19 12 2 -216 5 -506 6
-451 1 -528 -1 -533 -13z"/>
</g>
</svg>
